<svg xmlns="http://www.w3.org/2000/svg" viewBox="0 0 52.09 61.69" id="Female">
  <circle cx="26.04" cy="26.04" r="26.04" fill="#f79025" class="colorf72585 svgShape"></circle>
  <path fill="#feddbb" d="M22.62 18.83a1.3 1.3 0 0 1-1.16-.7l-.78-1.53a.3.3 0 0 0-.53 0l-.78 1.53a1.3 1.3 0 0 1-1.16.7h-2v6.89a9.65 9.65 0 0 0 6.64 9.16l.21.06a9.51 9.51 0 0 0 2.79.42 9.7 9.7 0 0 0 3.11-.51l.21-.08a9.6 9.6 0 0 0 6.32-9v-6.89Zm2.51 5.94a.92.92 0 0 1 .92-.92.9.9 0 0 1 .91.92v2.43a.92.92 0 1 1-1.83 0Zm-5.49-2.72a.45.45 0 0 1 .46-.46h3.45a.46.46 0 0 1 .46.46.47.47 0 0 1-.46.46H20.1a.46.46 0 0 1-.46-.46Zm10 9.49a4.13 4.13 0 0 1-1 1.34 4.05 4.05 0 0 1-6.74-3 .63.63 0 0 1 .18-.44.62.62 0 0 1 .45-.19h6.91a.63.63 0 0 1 .63.63 4.09 4.09 0 0 1-.38 1.63Zm2.14-9h-3.5a.47.47 0 0 1-.47-.46.46.46 0 0 1 .47-.46h3.5a.46.46 0 0 1 .41.46.46.46 0 0 1-.36.43Z" class="colorfec5bb svgShape"></path>
  <path fill="#feddbb" d="M16.25 18.83v5.51a2.76 2.76 0 0 1 0-5.51Z" class="colorfec5bb svgShape"></path>
  <path fill="#e5bf98" d="M16.25 20v3.18a1.59 1.59 0 0 1 0-3.18zm10.71 4.77v2.43a.92.92 0 1 1-1.83 0v-2.43a.92.92 0 0 1 .92-.92.9.9 0 0 1 .91.92z" class="colore5989b svgShape"></path>
  <path fill="#382f26" d="M22.56 24.65a.31.31 0 0 1-.31-.31.43.43 0 0 0-.43-.43.43.43 0 0 0-.43.43.3.3 0 0 1-.3.31.31.31 0 0 1-.31-.31 1.045 1.045 0 0 1 2.09 0 .31.31 0 0 1-.31.31zm8.23 0a.31.31 0 0 1-.31-.31.43.43 0 1 0-.86 0 .31.31 0 1 1-.61 0 1.04 1.04 0 1 1 2.08 0 .3.3 0 0 1-.3.31z" class="color262938 svgShape"></path>
  <path fill="#5b4c3d" d="M24.01 22.05a.47.47 0 0 1-.46.46H20.1a.46.46 0 0 1-.46-.46.45.45 0 0 1 .46-.46h3.45a.46.46 0 0 1 .46.46zm8.23 0a.46.46 0 0 1-.41.45h-3.5a.47.47 0 0 1-.47-.46.46.46 0 0 1 .47-.46h3.5a.46.46 0 0 1 .41.47z" class="color3d405b svgShape"></path>
  <path fill="#42372b" d="M30.05 29.85a4 4 0 0 1-1.36 3 3.16 3.16 0 0 0-5.32 0 4 4 0 0 1-1.42-3.08.63.63 0 0 1 .18-.44.62.62 0 0 1 .45-.19h.48v.54a.77.77 0 0 0 .77.77h4.18a.77.77 0 0 0 .77-.77v-.54h.66a.63.63 0 0 1 .61.71Z" class="color2b2d42 svgShape"></path>
  <path fill="#e08628" d="M28.69 32.88a4.05 4.05 0 0 1-5.32 0 3.16 3.16 0 0 1 5.32 0Z" class="coloref476f svgShape"></path>
  <path fill="#ffffff" d="M28.78 29.22v.54a.77.77 0 0 1-.77.77h-4.18a.77.77 0 0 1-.77-.77v-.54Z" class="colorffffff svgShape"></path>
  <path fill="#5b4c3d" d="M38.29 17.51a1.37 1.37 0 0 1-1.38 1.37H22.62a1.3 1.3 0 0 1-1.16-.7l-.78-1.53a.3.3 0 0 0-.53 0l-.78 1.53a1.3 1.3 0 0 1-1.16.7h-3.54a1.17 1.17 0 0 1-1.17-1.17 12.74 12.74 0 0 1 3.56-8.83 12.26 12.26 0 0 1 8.68-3.77A12.5 12.5 0 0 1 29 5.5a12 12 0 0 1 2.83 1.13 12.44 12.44 0 0 1 3.94 3.38 12.4 12.4 0 0 1 1.85 3.46 12.21 12.21 0 0 1 .67 4.04Z" class="color3d405b svgShape"></path>
  <path fill="#feddbb" d="M38.29 21.59a2.76 2.76 0 0 1-2.76 2.75v-5.51a2.77 2.77 0 0 1 2.76 2.76Z" class="colorfec5bb svgShape"></path>
  <path fill="#e5bf98" d="M36.91 21.59a1.37 1.37 0 0 1-1.38 1.37v-2.75a1.38 1.38 0 0 1 1.38 1.38Z" class="colore5989b svgShape"></path>
  <path fill="#ee9a43" d="M36.02 8.51a4.26 4.26 0 0 1-.25 1.43 12.44 12.44 0 0 0-3.94-3.38A12 12 0 0 0 29 5.43a4.14 4.14 0 0 1 2.83-1.11h.22a4.18 4.18 0 0 1 3.97 4.19Z" class="color4361ee svgShape"></path>
  <path fill="#382f26" d="M39.44 11.96v20.2a7.57 7.57 0 0 1-5-1.91 9.59 9.59 0 0 0 1.12-4.53v-1.38a2.76 2.76 0 1 0 0-5.51h1.38a1.37 1.37 0 0 0 1.38-1.37 12.21 12.21 0 0 0-.67-4A12.4 12.4 0 0 0 35.8 10a4.26 4.26 0 0 0 .25-1.43 4.18 4.18 0 0 0-4-4.18 7.6 7.6 0 0 1 7.4 7.61Z" class="color262938 svgShape"></path>
  <path fill="#e5bf98" d="M29 34.85v2a3 3 0 0 1-.29 1.27 3 3 0 0 1-2.66 1.68 3 3 0 0 1-2.69-1.74 2.89 2.89 0 0 1-.26-1.21v-1.94a9.51 9.51 0 0 0 2.79.42 9.7 9.7 0 0 0 3.11-.48Z" class="colore5989b svgShape"></path>
  <path fill="#ffffff" d="M30.96 37.24a5.08 5.08 0 0 1-10.11 0l1.72-.45a.59.59 0 0 1 .66.27 3.74 3.74 0 0 0 .46.59 3.34 3.34 0 0 0 5.15-.54.58.58 0 0 1 .65-.26Z" class="colorffffff svgShape"></path>
  <path fill="#ad5e0b" d="M37.78 39.03a12.11 12.11 0 0 1-23.75 0l6.82-1.82a5.08 5.08 0 0 0 10.11 0Z" class="color560bad svgShape"></path>
  <path fill="#ee9a43" d="M44.34 43.61a18.08 18.08 0 0 1-18.08 18.08h-.43A18.09 18.09 0 0 1 7.75 43.61a3.72 3.72 0 0 1 2.76-3.59l3.52-.94a12.11 12.11 0 0 0 23.75 0l3.79 1a3.71 3.71 0 0 1 2.77 3.53Z" class="color4361ee svgShape"></path>
</svg>
