<svg id="svg" version="1.1" xmlns="http://www.w3.org/2000/svg" xmlns:xlink="http://www.w3.org/1999/xlink" width="400" height="406.06060606060606" viewBox="0, 0, 400,406.06060606060606" style="background-color: transparent;"><g id="svgg"><path id="path0" d="M269.000 17.357 C 221.141 26.600,220.583 93.610,268.290 102.634 C 301.543 108.924,328.666 75.344,315.973 43.600 C 308.727 25.479,287.718 13.742,269.000 17.357 M183.000 79.391 C 182.780 79.462,181.250 79.824,179.600 80.196 C 174.117 81.431,158.639 90.956,156.746 94.259 C 154.285 98.553,153.426 97.009,175.304 127.600 C 178.687 132.330,188.629 146.257,197.397 158.548 C 217.185 186.287,215.023 184.428,226.600 183.648 C 230.340 183.396,237.450 182.925,242.400 182.602 C 247.350 182.278,253.830 181.836,256.800 181.618 C 266.272 180.925,279.526 180.008,288.800 179.403 C 293.750 179.080,301.220 178.555,305.400 178.236 C 309.580 177.917,314.890 177.545,317.200 177.409 C 338.074 176.184,342.321 175.379,348.012 171.570 C 364.872 160.286,363.304 134.917,345.184 125.792 C 339.766 123.063,335.529 122.535,326.000 123.400 C 322.150 123.749,316.120 124.295,312.600 124.613 C 309.080 124.931,304.400 125.370,302.200 125.588 C 300.000 125.807,294.780 126.255,290.600 126.586 C 286.420 126.916,282.370 127.273,281.600 127.381 C 280.407 127.546,265.987 128.878,243.800 130.871 C 240.720 131.148,237.046 131.380,235.635 131.387 L 233.071 131.400 230.099 124.600 C 215.652 91.542,214.970 90.370,207.123 85.094 C 200.450 80.608,188.220 77.717,183.000 79.391 M326.278 205.200 C 326.677 205.728,325.906 205.798,319.866 205.780 C 316.090 205.769,312.713 205.895,312.361 206.061 C 312.000 206.231,311.502 206.153,311.214 205.881 C 310.853 205.540,310.864 205.662,311.252 206.304 C 311.552 206.801,311.858 207.026,311.932 206.804 C 312.006 206.582,312.254 206.400,312.482 206.400 C 312.769 206.400,312.770 206.555,312.483 206.900 C 312.177 207.268,310.118 207.395,304.661 207.381 C 300.586 207.371,297.325 207.479,297.413 207.621 C 297.501 207.763,298.211 207.836,298.990 207.784 C 299.770 207.732,300.480 207.806,300.568 207.948 C 300.911 208.503,296.501 208.182,295.785 207.600 C 295.379 207.270,295.174 207.213,295.330 207.472 C 295.825 208.298,294.782 208.508,293.945 207.750 C 293.333 207.196,293.172 207.163,293.270 207.611 C 293.376 208.092,292.805 208.199,290.149 208.196 C 287.849 208.193,286.951 208.328,287.077 208.656 C 287.175 208.911,287.083 209.225,286.872 209.355 C 286.662 209.485,286.515 209.291,286.545 208.924 C 286.592 208.354,286.127 208.252,283.349 208.223 C 280.777 208.196,280.141 208.301,280.304 208.728 C 280.456 209.123,280.588 209.143,280.800 208.800 C 281.012 208.457,281.143 208.475,281.294 208.868 C 281.458 209.296,280.646 209.396,277.250 209.366 C 274.912 209.346,272.767 209.508,272.483 209.727 C 272.136 209.995,271.823 209.983,271.529 209.689 C 271.213 209.373,270.802 209.437,270.046 209.919 C 269.241 210.433,269.107 210.450,269.466 209.993 C 269.867 209.482,269.581 209.400,267.404 209.400 C 266.014 209.400,264.962 209.538,265.066 209.707 C 265.170 209.875,265.410 209.917,265.600 209.800 C 265.790 209.683,266.037 209.737,266.151 209.920 C 266.264 210.103,265.601 210.233,264.678 210.208 C 263.755 210.183,262.680 210.351,262.288 210.582 C 261.815 210.859,261.479 210.865,261.288 210.600 C 260.893 210.051,258.912 210.128,258.325 210.715 C 257.952 211.088,257.625 210.994,256.858 210.297 C 256.315 209.804,256.001 209.625,256.159 209.900 C 256.747 210.920,255.927 211.271,254.997 210.397 C 254.171 209.622,254.084 209.607,254.139 210.257 C 254.173 210.654,253.930 211.002,253.600 211.029 C 253.270 211.056,252.910 211.119,252.800 211.170 C 252.185 211.451,251.224 211.484,251.389 211.218 C 251.495 211.047,251.264 210.620,250.876 210.269 C 250.223 209.677,250.172 209.695,250.185 210.515 C 250.193 211.002,250.020 211.445,249.800 211.500 C 249.580 211.555,249.400 211.435,249.400 211.233 C 249.400 210.496,248.812 210.304,248.560 210.960 C 248.323 211.577,248.241 211.580,247.600 211.000 C 246.986 210.444,246.870 210.440,246.670 210.962 C 246.506 211.390,246.633 211.493,247.120 211.326 C 247.726 211.118,247.723 211.152,247.091 211.646 C 246.549 212.069,244.745 212.200,239.432 212.200 C 233.024 212.200,232.509 212.253,232.842 212.877 C 233.203 213.552,232.229 213.636,231.226 213.016 C 231.022 212.890,230.742 212.970,230.603 213.195 C 230.438 213.462,230.103 213.469,229.628 213.215 C 229.231 213.002,228.792 212.941,228.654 213.080 C 228.243 213.490,225.616 213.549,225.371 213.153 C 225.246 212.952,224.932 212.925,224.672 213.093 C 224.413 213.262,223.210 213.401,222.000 213.403 C 220.393 213.406,219.830 213.548,219.910 213.933 C 219.970 214.223,219.832 214.344,219.603 214.202 C 219.374 214.061,219.270 213.810,219.372 213.645 C 219.474 213.480,219.037 213.345,218.400 213.345 C 217.763 213.345,217.329 213.485,217.434 213.655 C 217.539 213.826,217.935 213.866,218.313 213.745 C 218.861 213.569,218.886 213.606,218.436 213.925 C 218.126 214.146,217.665 214.246,217.411 214.149 C 217.158 214.052,216.692 214.473,216.376 215.086 C 216.060 215.699,215.700 216.290,215.577 216.400 C 215.343 216.609,208.623 228.703,208.354 229.400 C 208.126 229.992,204.051 237.551,199.189 246.400 C 184.765 272.653,183.898 274.306,184.238 274.896 C 184.398 275.173,184.381 275.266,184.200 275.103 C 184.019 274.939,183.659 275.119,183.398 275.503 C 182.461 276.884,178.343 284.800,178.562 284.800 C 178.686 284.800,179.285 283.884,179.893 282.764 C 181.850 279.166,182.211 278.567,183.113 277.419 C 183.601 276.799,184.003 276.451,184.006 276.646 C 184.009 276.841,184.187 276.730,184.400 276.400 C 184.633 276.039,184.790 275.990,184.794 276.276 C 184.797 276.538,184.617 276.866,184.393 277.004 C 184.170 277.142,184.092 277.426,184.221 277.634 C 184.350 277.843,184.626 277.908,184.834 277.779 C 185.043 277.650,185.117 277.390,185.000 277.200 C 184.581 276.523,185.664 276.334,186.359 276.962 C 186.953 277.501,187.067 277.510,187.067 277.019 C 187.067 276.698,186.893 276.542,186.681 276.673 C 185.808 277.213,186.723 275.818,187.622 275.239 C 188.436 274.715,188.525 274.709,188.155 275.205 C 187.728 275.775,187.524 277.410,187.930 277.003 C 188.038 276.895,188.338 276.983,188.597 277.197 C 188.920 277.465,189.067 277.407,189.067 277.011 C 189.067 276.694,188.893 276.542,188.681 276.673 C 188.470 276.804,188.378 276.665,188.479 276.363 C 188.596 276.012,189.296 275.812,190.431 275.806 C 191.774 275.798,192.169 275.654,192.070 275.209 C 191.972 274.765,192.137 274.800,192.745 275.350 C 193.562 276.089,194.636 275.905,194.145 275.111 C 193.983 274.849,194.063 274.792,194.345 274.966 C 194.602 275.125,194.728 275.392,194.625 275.559 C 194.522 275.727,194.834 275.827,195.319 275.783 C 195.803 275.739,196.152 275.492,196.094 275.234 C 196.017 274.891,196.230 274.900,196.894 275.270 C 198.164 275.976,202.000 276.021,202.000 275.330 C 202.000 275.038,202.371 274.800,202.824 274.800 C 203.277 274.800,203.544 274.968,203.417 275.172 C 203.291 275.377,203.370 275.658,203.593 275.796 C 203.817 275.934,204.000 275.767,204.000 275.424 C 204.000 275.061,204.344 274.800,204.824 274.800 C 205.277 274.800,205.544 274.968,205.417 275.172 C 205.291 275.377,205.370 275.658,205.593 275.796 C 205.817 275.934,206.000 275.767,206.000 275.424 C 206.000 274.565,207.497 274.631,207.724 275.500 C 207.889 276.129,207.912 276.132,207.954 275.525 C 208.012 274.670,209.579 274.726,209.653 275.585 C 209.682 275.923,209.831 275.570,209.985 274.800 L 210.265 273.400 210.707 274.400 C 210.950 274.950,211.173 275.220,211.203 275.000 C 211.232 274.780,211.411 274.960,211.600 275.400 C 211.888 276.070,211.948 275.989,211.972 274.900 C 212.003 273.447,212.777 273.090,212.840 274.500 C 212.878 275.360,212.893 275.356,213.183 274.400 C 213.470 273.454,213.497 273.475,213.679 274.800 L 213.872 276.200 213.936 274.900 C 214.008 273.441,214.778 273.101,214.840 274.500 C 214.878 275.360,214.893 275.355,215.181 274.400 L 215.483 273.400 215.681 274.600 L 215.880 275.800 215.940 274.700 C 216.012 273.384,216.783 273.213,216.840 274.500 C 216.877 275.339,216.897 275.346,217.140 274.600 C 217.283 274.160,217.701 273.777,218.068 273.750 C 218.457 273.720,218.655 273.913,218.541 274.209 C 218.433 274.490,218.538 274.838,218.773 274.983 C 219.017 275.134,219.200 274.931,219.200 274.509 C 219.200 274.053,219.488 273.771,219.955 273.771 C 220.372 273.771,220.628 273.983,220.527 274.245 C 220.427 274.506,220.538 274.838,220.773 274.983 C 221.016 275.133,221.200 274.934,221.200 274.520 C 221.200 273.863,221.590 273.795,225.222 273.822 C 227.434 273.839,229.352 273.677,229.484 273.464 C 229.616 273.251,229.528 273.197,229.289 273.345 C 229.051 273.492,228.765 273.467,228.655 273.290 C 228.299 272.713,229.932 272.836,230.419 273.422 C 230.898 274.000,231.782 273.817,231.411 273.218 C 231.300 273.038,231.456 272.686,231.758 272.435 C 232.180 272.085,232.363 272.125,232.549 272.611 C 232.714 273.041,232.634 273.147,232.295 272.944 C 231.967 272.747,231.985 272.875,232.349 273.323 C 232.918 274.025,233.409 274.262,233.033 273.653 C 232.915 273.463,233.205 272.968,233.677 272.553 C 234.415 271.906,234.501 271.895,234.292 272.471 C 234.157 272.840,234.298 273.349,234.603 273.603 C 235.055 273.978,235.127 273.888,234.987 273.117 C 234.854 272.383,234.993 272.171,235.608 272.171 C 236.491 272.171,236.604 272.436,235.987 273.053 C 235.702 273.338,235.758 273.467,236.164 273.467 C 236.490 273.467,236.744 273.362,236.730 273.233 C 236.648 272.469,236.891 272.171,237.600 272.171 C 238.506 272.171,238.605 272.435,237.948 273.092 C 237.611 273.429,237.688 273.512,238.248 273.419 C 238.661 273.350,238.961 273.112,238.914 272.890 C 238.867 272.668,239.182 272.393,239.614 272.280 C 240.471 272.056,240.638 272.402,239.987 273.053 C 239.702 273.338,239.758 273.467,240.164 273.467 C 240.490 273.467,240.721 273.299,240.678 273.095 C 240.535 272.411,242.310 271.988,242.562 272.646 C 242.688 272.974,242.625 273.139,242.423 273.014 C 242.221 272.889,241.925 272.998,241.766 273.255 C 241.585 273.548,241.650 273.616,241.938 273.438 C 242.558 273.055,242.532 273.176,241.572 275.164 C 241.117 276.106,240.822 276.955,240.916 277.050 C 241.111 277.244,242.771 274.085,249.861 260.025 C 252.572 254.649,254.938 250.102,255.118 249.922 C 255.443 249.597,258.200 249.979,273.000 252.401 C 288.903 255.003,290.649 255.223,295.265 255.214 C 314.351 255.174,330.262 239.153,329.022 221.224 C 328.104 207.949,327.894 206.437,326.834 205.497 C 326.279 205.003,326.028 204.870,326.278 205.200 M316.921 206.527 C 316.810 206.707,316.467 206.758,316.160 206.640 C 315.852 206.522,315.586 206.644,315.568 206.913 C 315.546 207.258,315.476 207.247,315.327 206.876 C 315.162 206.464,314.960 206.493,314.390 207.009 C 313.714 207.621,313.636 207.615,313.269 206.928 C 312.907 206.253,313.056 206.190,314.999 206.195 C 316.167 206.198,317.033 206.347,316.921 206.527 M239.580 279.239 C 239.120 280.140,238.813 280.946,238.897 281.030 C 238.981 281.114,239.441 280.376,239.919 279.391 C 241.009 277.147,240.715 277.015,239.580 279.239 M234.778 288.843 C 232.784 292.827,231.215 296.148,231.291 296.224 C 231.367 296.300,233.087 293.041,235.113 288.981 C 237.139 284.922,238.709 281.600,238.601 281.600 C 238.493 281.600,236.773 284.859,234.778 288.843 M302.156 285.556 C 302.194 286.081,301.381 286.169,296.525 286.163 C 292.651 286.159,290.929 286.290,291.102 286.578 C 291.275 286.869,291.174 286.874,290.777 286.594 C 290.067 286.094,289.192 286.098,288.400 286.606 C 288.070 286.817,285.599 286.997,282.909 287.006 C 279.685 287.016,277.856 287.184,277.543 287.497 C 277.176 287.864,276.939 287.816,276.504 287.286 C 276.194 286.909,276.046 286.810,276.174 287.067 C 276.442 287.605,274.727 288.069,271.973 288.202 C 266.359 288.475,256.204 299.684,252.653 309.528 C 250.395 315.790,249.269 326.488,250.394 331.000 C 250.586 331.769,250.676 330.909,250.646 328.605 C 250.602 325.156,250.636 325.008,251.490 324.960 C 251.979 324.933,252.281 325.068,252.162 325.262 C 252.042 325.455,251.749 325.492,251.511 325.345 C 251.243 325.179,251.192 325.264,251.378 325.564 C 251.607 325.935,251.845 325.902,252.371 325.426 C 253.104 324.763,253.667 324.600,253.500 325.100 C 253.445 325.265,253.580 325.400,253.800 325.400 C 254.020 325.400,254.155 325.265,254.100 325.100 C 253.935 324.606,255.398 324.761,255.979 325.300 C 256.412 325.703,256.458 325.696,256.214 325.265 C 255.985 324.863,256.192 324.764,257.055 324.865 C 257.953 324.971,258.188 324.846,258.142 324.286 C 258.096 323.721,258.200 323.668,258.638 324.031 C 258.942 324.284,259.111 324.620,259.013 324.779 C 258.915 324.937,259.089 325.067,259.400 325.067 C 259.711 325.067,259.872 324.917,259.759 324.733 C 259.360 324.087,260.040 323.535,260.631 324.026 C 260.939 324.282,261.102 324.634,260.994 324.810 C 260.885 324.986,261.112 325.079,261.498 325.018 C 261.884 324.956,262.177 324.623,262.148 324.277 C 262.089 323.552,263.058 323.047,263.411 323.619 C 263.562 323.861,263.924 323.855,264.400 323.600 C 264.904 323.330,265.233 323.330,265.400 323.600 C 265.561 323.861,265.900 323.868,266.363 323.620 C 266.838 323.365,267.226 323.386,267.522 323.682 C 267.848 324.008,268.112 324.005,268.513 323.673 C 268.920 323.335,269.175 323.335,269.513 323.673 C 269.824 323.984,270.128 323.998,270.483 323.719 C 270.767 323.495,271.590 323.345,272.310 323.386 C 273.205 323.437,273.490 323.330,273.210 323.050 C 272.468 322.308,272.783 321.993,273.583 322.678 C 274.619 323.565,275.850 323.784,275.165 322.958 C 274.902 322.641,274.802 322.265,274.943 322.124 C 275.084 321.982,275.200 322.057,275.200 322.289 C 275.200 322.521,275.515 322.686,275.900 322.656 C 276.285 322.625,276.565 322.795,276.522 323.033 C 276.479 323.272,276.710 323.467,277.036 323.467 C 277.442 323.467,277.498 323.338,277.213 323.053 C 276.562 322.402,276.729 322.056,277.586 322.280 C 278.018 322.393,278.333 322.668,278.286 322.890 C 278.109 323.725,279.532 323.503,279.764 322.659 C 279.957 321.958,280.069 321.907,280.374 322.381 C 280.579 322.700,280.656 323.110,280.544 323.291 C 280.432 323.472,280.579 323.570,280.870 323.510 C 281.162 323.449,281.544 323.044,281.721 322.610 C 281.990 321.945,282.100 321.913,282.414 322.410 C 282.620 322.734,282.791 322.814,282.794 322.586 C 282.797 322.358,283.160 322.171,283.600 322.171 C 284.040 322.171,284.403 322.358,284.406 322.586 C 284.410 322.859,284.513 322.863,284.706 322.600 C 284.868 322.380,285.270 322.200,285.600 322.200 C 285.930 322.200,286.332 322.380,286.494 322.600 C 286.657 322.822,286.790 322.667,286.794 322.251 C 286.799 321.631,286.903 321.588,287.400 322.000 C 287.730 322.274,288.003 322.341,288.006 322.149 C 288.009 321.957,288.187 322.070,288.400 322.400 C 288.714 322.885,288.789 322.828,288.794 322.100 C 288.797 321.605,288.980 321.200,289.200 321.200 C 289.420 321.200,289.600 321.481,289.600 321.824 C 289.600 322.167,289.765 322.345,289.966 322.221 C 290.167 322.097,290.423 322.221,290.534 322.498 C 290.646 322.774,290.751 322.595,290.768 322.100 C 290.801 321.158,291.600 320.806,291.600 321.733 C 291.600 322.027,291.870 322.267,292.200 322.267 C 292.530 322.267,292.800 322.038,292.800 321.758 C 292.800 321.479,293.148 321.276,293.572 321.308 C 293.997 321.340,294.264 321.496,294.166 321.655 C 294.067 321.815,294.170 322.058,294.393 322.196 C 294.617 322.334,294.800 322.200,294.800 321.897 C 294.800 321.466,295.667 321.353,298.838 321.374 C 301.059 321.388,303.078 321.275,303.325 321.123 C 303.571 320.970,304.004 321.038,304.287 321.272 C 304.651 321.574,304.956 321.569,305.337 321.252 C 305.632 321.007,306.021 320.940,306.201 321.103 C 306.381 321.267,306.397 321.172,306.236 320.893 C 306.076 320.615,305.777 320.491,305.572 320.617 C 305.368 320.744,305.200 320.687,305.200 320.490 C 305.200 319.822,305.725 319.606,306.263 320.052 C 306.654 320.376,306.944 320.378,307.330 320.058 C 307.716 319.738,307.986 319.746,308.330 320.090 C 308.690 320.450,308.910 320.450,309.270 320.090 C 309.622 319.738,309.879 319.734,310.287 320.073 C 310.695 320.411,310.949 320.411,311.287 320.073 C 311.609 319.751,311.890 319.742,312.253 320.044 C 312.535 320.278,312.997 320.324,313.282 320.145 C 313.567 319.967,314.070 319.816,314.400 319.811 C 314.730 319.805,314.942 319.535,314.870 319.211 C 314.772 318.763,314.933 318.796,315.545 319.350 C 316.381 320.107,317.420 319.899,316.938 319.072 C 316.786 318.813,317.008 318.884,317.431 319.230 C 318.426 320.046,323.867 320.036,323.684 319.219 C 323.614 318.907,323.802 318.792,324.158 318.928 C 324.483 319.053,324.836 318.940,324.943 318.678 C 325.090 318.314,325.144 318.317,325.168 318.687 C 325.187 318.974,325.474 319.070,325.866 318.919 C 326.288 318.757,326.434 318.822,326.264 319.097 C 325.966 319.579,326.718 319.554,327.518 319.054 C 327.804 318.876,328.268 318.925,328.557 319.164 C 328.945 319.487,329.263 319.394,329.800 318.800 C 330.359 318.183,330.646 318.106,331.072 318.460 C 331.500 318.815,331.842 318.712,332.600 318.000 C 333.452 317.199,333.662 317.154,334.250 317.641 C 334.620 317.949,335.030 318.151,335.161 318.091 C 335.587 317.896,336.030 324.501,335.841 328.200 C 335.670 331.521,335.687 331.630,336.061 329.600 C 338.757 314.960,328.857 294.492,316.000 288.125 C 315.230 287.744,314.330 287.227,314.000 286.978 C 312.002 285.467,306.456 284.436,304.753 285.259 C 304.397 285.431,303.988 285.455,303.844 285.311 C 303.311 284.777,302.113 284.951,302.156 285.556 M230.181 298.037 C 229.829 298.718,229.612 299.345,229.699 299.432 C 229.786 299.519,230.156 298.962,230.522 298.195 C 231.344 296.470,231.059 296.338,230.181 298.037 M167.400 304.800 C 167.059 305.460,166.869 306.000,166.979 306.000 C 167.089 306.000,167.459 305.460,167.800 304.800 C 168.141 304.140,168.331 303.600,168.221 303.600 C 168.111 303.600,167.741 304.140,167.400 304.800 M164.400 310.400 C 163.734 311.720,163.278 312.800,163.388 312.800 C 163.498 312.800,164.134 311.720,164.800 310.400 C 165.466 309.080,165.922 308.000,165.812 308.000 C 165.702 308.000,165.066 309.080,164.400 310.400 M222.181 313.637 C 221.829 314.318,221.612 314.945,221.699 315.032 C 221.786 315.119,222.156 314.562,222.522 313.795 C 223.344 312.070,223.059 311.938,222.181 313.637 M162.250 314.791 C 161.347 317.047,161.487 317.383,162.437 315.242 C 162.866 314.275,163.145 313.412,163.058 313.325 C 162.971 313.238,162.608 313.898,162.250 314.791 M220.600 316.800 C 220.259 317.460,220.069 318.000,220.179 318.000 C 220.289 318.000,220.659 317.460,221.000 316.800 C 221.341 316.140,221.531 315.600,221.421 315.600 C 221.311 315.600,220.941 316.140,220.600 316.800 M304.400 320.357 C 304.400 320.527,304.130 320.667,303.800 320.667 C 303.173 320.667,303.019 320.314,303.456 319.878 C 303.755 319.579,304.400 319.906,304.400 320.357 M160.514 322.600 C 160.517 323.700,160.595 324.103,160.687 323.495 C 160.779 322.886,160.777 321.986,160.682 321.495 C 160.587 321.003,160.511 321.500,160.514 322.600 M160.493 327.600 C 160.493 328.370,160.575 328.685,160.676 328.300 C 160.776 327.915,160.776 327.285,160.676 326.900 C 160.575 326.515,160.493 326.830,160.493 327.600 M252.067 338.020 C 252.301 338.692,252.567 339.167,252.657 339.076 C 252.856 338.878,252.101 336.800,251.831 336.800 C 251.727 336.800,251.833 337.349,252.067 338.020 M253.200 340.943 C 253.200 341.394,255.880 346.531,256.569 347.400 C 256.917 347.840,256.362 346.580,255.336 344.600 C 253.347 340.763,253.200 340.512,253.200 340.943 M205.385 343.700 L 203.400 345.800 205.500 343.815 C 207.451 341.971,207.783 341.600,207.485 341.600 C 207.422 341.600,206.477 342.545,205.385 343.700 M167.983 343.700 C 169.641 345.466,170.000 345.784,170.000 345.483 C 170.000 345.419,169.145 344.564,168.100 343.583 L 166.200 341.800 167.983 343.700 M257.991 349.588 C 258.457 350.241,259.042 350.902,259.291 351.056 C 259.541 351.211,259.241 350.676,258.625 349.868 C 257.288 348.115,256.784 347.892,257.991 349.588 M185.300 351.491 C 186.125 351.578,187.475 351.578,188.300 351.491 C 189.125 351.405,188.450 351.334,186.800 351.334 C 185.150 351.334,184.475 351.405,185.300 351.491 M261.000 353.200 C 261.859 354.080,262.652 354.800,262.762 354.800 C 262.872 354.800,262.259 354.080,261.400 353.200 C 260.541 352.320,259.748 351.600,259.638 351.600 C 259.528 351.600,260.141 352.320,261.000 353.200 M272.400 362.179 C 272.400 362.289,272.940 362.659,273.600 363.000 C 274.260 363.341,274.800 363.531,274.800 363.421 C 274.800 363.311,274.260 362.941,273.600 362.600 C 272.940 362.259,272.400 362.069,272.400 362.179 M292.700 367.493 C 293.635 367.577,295.165 367.577,296.100 367.493 C 297.035 367.409,296.270 367.340,294.400 367.340 C 292.530 367.340,291.765 367.409,292.700 367.493 " stroke="none" fill="#3094b0" fill-rule="evenodd" data-index="0" style="opacity: 1;"></path><path id="path1" d="M132.185 110.560 C 129.493 111.733,117.789 119.814,115.431 122.128 C 103.929 133.414,102.137 151.944,111.235 165.498 C 111.938 166.544,118.742 173.660,126.356 181.310 L 140.200 195.221 131.299 212.910 C 126.403 222.640,116.279 242.744,108.802 257.588 C 101.324 272.431,94.943 285.481,94.621 286.588 C 91.427 297.588,94.799 308.609,103.548 315.763 C 115.125 325.229,133.451 322.638,141.846 310.351 C 143.942 307.283,144.522 306.131,153.600 287.000 C 158.250 277.201,169.889 252.779,177.811 236.200 C 178.967 233.780,183.024 225.320,186.826 217.400 L 193.740 203.000 193.900 199.600 C 194.102 195.291,195.131 197.169,178.931 172.281 C 160.100 143.350,144.861 119.922,142.323 116.000 C 138.751 110.481,135.891 108.946,132.185 110.560 M50.800 165.782 C 21.631 170.611,5.622 203.173,19.637 229.165 C 35.981 259.476,79.752 259.618,96.044 229.414 C 113.178 197.649,86.337 159.899,50.800 165.782 " stroke="none" fill="#f78736" fill-rule="evenodd" data-index="1"></path><path id="path2" d="M0.000 203.000 L 0.000 406.000 200.000 406.000 L 400.000 406.000 400.000 203.000 L 400.000 0.000 200.000 0.000 L 0.000 0.000 0.000 203.000 M283.597 17.199 C 319.508 24.042,332.093 68.131,305.115 92.585 C 288.415 107.724,261.608 107.243,245.636 91.516 C 214.964 61.315,241.587 9.194,283.597 17.199 M198.245 80.287 C 202.787 81.774,207.547 84.575,211.206 87.915 C 216.072 92.356,217.811 95.291,223.816 109.200 C 225.478 113.050,228.314 119.593,230.119 123.739 L 233.400 131.278 237.000 131.036 C 240.584 130.795,245.632 130.339,261.998 128.777 C 266.727 128.325,274.737 127.609,279.798 127.185 C 284.859 126.762,294.750 125.872,301.779 125.208 C 336.701 121.910,337.653 121.898,343.930 124.674 C 363.338 133.257,365.779 160.167,348.214 171.902 C 343.328 175.166,339.278 176.300,330.698 176.803 C 326.904 177.026,321.910 177.382,319.600 177.595 C 317.290 177.807,311.260 178.254,306.200 178.588 C 301.140 178.921,295.830 179.291,294.400 179.408 C 292.970 179.526,287.840 179.880,283.000 180.194 C 278.160 180.508,269.070 181.125,262.800 181.565 C 256.530 182.004,248.610 182.554,245.200 182.785 C 241.790 183.017,235.580 183.472,231.400 183.797 C 215.510 185.033,215.833 185.177,207.171 172.982 C 204.437 169.132,196.137 157.481,188.727 147.091 C 181.317 136.701,174.873 127.660,174.407 127.000 C 173.940 126.340,169.760 120.490,165.117 114.000 C 152.266 96.038,152.272 96.108,163.000 88.569 C 176.817 78.859,186.752 76.524,198.245 80.287 M137.098 110.615 C 139.184 111.487,139.839 112.162,142.323 116.000 C 144.682 119.646,156.679 138.090,178.992 172.374 C 195.398 197.583,195.657 198.135,193.478 203.246 C 192.908 204.584,172.033 248.458,165.523 262.000 C 163.672 265.850,157.951 277.855,152.810 288.679 C 142.786 309.781,141.455 312.063,137.118 315.572 C 121.740 328.015,98.019 319.782,93.979 300.600 C 91.990 291.158,92.279 290.329,109.431 256.320 C 117.452 240.414,127.656 220.158,132.106 211.306 L 140.196 195.212 126.355 181.306 C 109.961 164.837,108.513 162.899,106.397 154.600 C 102.436 139.067,108.517 125.861,124.461 115.372 C 133.213 109.615,133.997 109.319,137.098 110.615 M69.000 166.623 C 117.857 180.806,108.512 251.861,57.800 251.790 C 18.863 251.735,-0.195 205.105,27.521 177.704 C 38.222 167.124,55.149 162.603,69.000 166.623 M324.274 201.625 C 328.110 203.075,328.858 205.045,329.324 214.920 C 330.053 230.384,327.364 238.471,318.822 246.507 C 309.754 255.037,299.959 257.450,285.000 254.838 C 279.209 253.827,256.767 250.400,255.937 250.400 C 255.290 250.400,255.432 250.137,245.321 270.000 C 241.457 277.590,236.813 286.680,235.001 290.200 C 233.189 293.720,228.870 302.180,225.404 309.000 C 221.938 315.820,217.885 323.740,216.398 326.600 C 214.910 329.460,212.861 333.420,211.843 335.400 C 204.586 349.517,191.079 355.314,177.463 350.157 C 161.400 344.073,155.333 326.167,163.996 310.407 C 164.878 308.802,165.600 307.423,165.600 307.343 C 165.600 307.262,166.831 304.992,168.335 302.298 C 169.840 299.604,172.117 295.420,173.395 293.000 C 176.110 287.861,185.477 270.471,188.800 264.400 C 191.923 258.693,193.314 256.109,197.411 248.400 C 199.340 244.770,203.472 237.120,206.593 231.400 C 209.715 225.680,213.407 218.854,214.798 216.230 C 219.857 206.692,220.242 206.523,239.000 205.609 C 243.840 205.374,252.390 204.917,258.000 204.596 C 263.610 204.274,271.710 203.827,276.000 203.602 C 280.290 203.377,290.190 202.836,298.000 202.400 C 305.810 201.964,313.280 201.550,314.600 201.479 C 320.198 201.181,323.217 201.226,324.274 201.625 M304.675 282.155 C 337.053 291.111,347.683 332.277,323.617 355.513 C 298.014 380.234,255.531 365.968,250.022 330.800 C 245.202 300.027,274.622 273.841,304.675 282.155 " stroke="none" fill="#fbfbfb" fill-rule="evenodd" data-index="2" style="opacity: 1;"></path><path id="path3" d="M231.730 272.500 C 231.555 272.775,231.409 273.135,231.406 273.300 C 231.398 273.699,230.802 273.743,230.467 273.369 C 230.320 273.206,230.470 273.219,230.800 273.400 C 231.151 273.592,231.264 273.579,231.071 273.368 C 230.645 272.903,228.356 272.805,228.640 273.264 C 228.758 273.456,229.051 273.492,229.289 273.345 C 229.528 273.197,229.616 273.251,229.484 273.464 C 229.352 273.677,227.434 273.839,225.222 273.822 C 221.590 273.795,221.200 273.863,221.200 274.520 C 221.200 274.934,221.016 275.133,220.773 274.983 C 220.538 274.838,220.427 274.506,220.527 274.245 C 220.628 273.983,220.372 273.771,219.955 273.771 C 219.488 273.771,219.200 274.053,219.200 274.509 C 219.200 274.931,219.017 275.134,218.773 274.983 C 218.538 274.838,218.433 274.490,218.541 274.209 C 218.655 273.913,218.457 273.720,218.068 273.750 C 217.701 273.777,217.283 274.160,217.140 274.600 C 216.897 275.346,216.877 275.339,216.840 274.500 C 216.784 273.232,216.087 273.378,215.887 274.700 L 215.720 275.800 215.620 274.600 C 215.521 273.410,215.518 273.408,215.200 274.400 C 214.893 275.359,214.878 275.363,214.840 274.500 C 214.779 273.129,214.072 273.427,213.889 274.900 L 213.728 276.200 213.624 274.800 C 213.527 273.490,213.500 273.465,213.200 274.400 C 212.893 275.359,212.878 275.363,212.840 274.500 C 212.777 273.090,212.003 273.447,211.972 274.900 C 211.948 275.989,211.888 276.070,211.600 275.400 C 211.411 274.960,211.232 274.780,211.203 275.000 C 211.173 275.220,210.950 274.950,210.707 274.400 L 210.265 273.400 209.985 274.800 C 209.831 275.570,209.682 275.923,209.653 275.585 C 209.580 274.742,208.091 274.693,207.871 275.527 C 207.710 276.135,207.688 276.133,207.646 275.500 C 207.588 274.618,206.000 274.544,206.000 275.424 C 206.000 275.767,205.817 275.934,205.593 275.796 C 205.370 275.658,205.291 275.377,205.417 275.172 C 205.544 274.968,205.277 274.800,204.824 274.800 C 204.344 274.800,204.000 275.061,204.000 275.424 C 204.000 275.767,203.817 275.934,203.593 275.796 C 203.370 275.658,203.291 275.377,203.417 275.172 C 203.544 274.968,203.277 274.800,202.824 274.800 C 202.371 274.800,202.000 275.038,202.000 275.330 C 202.000 276.021,198.164 275.976,196.894 275.270 C 196.230 274.900,196.017 274.891,196.094 275.234 C 196.152 275.492,195.803 275.739,195.319 275.783 C 194.834 275.827,194.522 275.727,194.625 275.559 C 194.728 275.392,194.602 275.125,194.345 274.966 C 194.063 274.792,193.983 274.849,194.145 275.111 C 194.636 275.905,193.562 276.089,192.745 275.350 C 192.137 274.800,191.972 274.765,192.070 275.209 C 192.169 275.654,191.774 275.798,190.431 275.806 C 189.296 275.812,188.596 276.012,188.479 276.363 C 188.378 276.665,188.470 276.804,188.681 276.673 C 188.893 276.542,189.067 276.694,189.067 277.011 C 189.067 277.407,188.920 277.465,188.597 277.197 C 188.338 276.983,188.038 276.895,187.930 277.003 C 187.524 277.410,187.728 275.775,188.155 275.205 C 188.525 274.709,188.436 274.715,187.622 275.239 C 186.723 275.818,185.808 277.213,186.681 276.673 C 186.893 276.542,187.067 276.698,187.067 277.019 C 187.067 277.510,186.953 277.501,186.359 276.962 C 185.664 276.334,184.581 276.523,185.000 277.200 C 185.117 277.390,185.043 277.650,184.834 277.779 C 184.626 277.908,184.350 277.843,184.221 277.634 C 184.092 277.426,184.170 277.142,184.393 277.004 C 184.617 276.866,184.797 276.538,184.794 276.276 C 184.790 275.990,184.633 276.039,184.400 276.400 C 184.187 276.730,184.009 276.841,184.006 276.646 C 183.998 276.194,182.416 278.197,181.613 279.676 C 180.670 281.413,172.005 296.921,171.598 297.600 C 171.400 297.930,170.816 299.010,170.300 300.000 C 167.358 305.640,163.843 312.254,163.603 312.600 C 160.343 317.302,159.740 328.612,162.414 334.897 C 169.689 351.992,191.073 356.762,204.591 344.306 C 209.019 340.226,211.258 336.104,235.071 288.200 C 238.680 280.940,241.884 274.542,242.191 273.982 C 242.908 272.672,242.500 271.989,241.274 272.447 C 240.765 272.637,240.442 272.945,240.557 273.130 C 240.671 273.315,240.497 273.467,240.169 273.467 C 239.759 273.467,239.702 273.338,239.987 273.053 C 240.638 272.402,240.471 272.056,239.614 272.280 C 239.182 272.393,238.867 272.668,238.914 272.890 C 238.961 273.112,238.661 273.350,238.248 273.419 C 237.688 273.512,237.611 273.429,237.948 273.092 C 238.605 272.435,238.506 272.171,237.600 272.171 C 236.891 272.171,236.648 272.469,236.730 273.233 C 236.744 273.362,236.490 273.467,236.164 273.467 C 235.758 273.467,235.702 273.338,235.987 273.053 C 236.604 272.436,236.491 272.171,235.608 272.171 C 234.993 272.171,234.854 272.383,234.987 273.117 C 235.127 273.888,235.055 273.978,234.603 273.603 C 234.298 273.349,234.157 272.840,234.292 272.471 C 234.501 271.895,234.415 271.906,233.677 272.553 C 233.205 272.968,232.939 273.508,233.086 273.753 C 233.233 273.999,233.049 273.953,232.677 273.651 C 231.947 273.059,231.748 272.597,232.395 272.997 C 232.622 273.137,232.689 272.977,232.553 272.621 C 232.264 271.870,232.142 271.852,231.730 272.500 M332.511 318.067 C 331.830 318.748,331.523 318.834,331.083 318.468 C 330.643 318.103,330.365 318.175,329.800 318.800 C 329.263 319.394,328.945 319.487,328.557 319.164 C 328.268 318.925,327.804 318.876,327.518 319.054 C 326.718 319.554,325.966 319.579,326.264 319.097 C 326.431 318.826,326.293 318.756,325.891 318.910 C 325.540 319.045,325.164 318.940,325.057 318.678 C 324.910 318.314,324.856 318.317,324.832 318.687 C 324.814 318.958,324.526 319.070,324.184 318.938 C 323.802 318.792,323.612 318.899,323.684 319.219 C 323.867 320.036,318.426 320.046,317.431 319.230 C 317.008 318.884,316.786 318.813,316.938 319.072 C 317.420 319.899,316.381 320.107,315.545 319.350 C 314.933 318.796,314.772 318.763,314.870 319.211 C 314.942 319.535,314.730 319.805,314.400 319.811 C 314.070 319.816,313.567 319.967,313.282 320.145 C 312.997 320.324,312.535 320.278,312.253 320.044 C 311.890 319.742,311.609 319.751,311.287 320.073 C 310.949 320.411,310.695 320.411,310.287 320.073 C 309.879 319.734,309.622 319.738,309.270 320.090 C 308.910 320.450,308.690 320.450,308.330 320.090 C 307.986 319.746,307.716 319.738,307.330 320.058 C 306.944 320.378,306.654 320.376,306.263 320.052 C 305.725 319.606,305.200 319.822,305.200 320.490 C 305.200 320.687,305.368 320.744,305.572 320.617 C 305.777 320.491,306.076 320.615,306.236 320.893 C 306.397 321.172,306.381 321.267,306.201 321.103 C 306.021 320.940,305.632 321.007,305.337 321.252 C 304.956 321.569,304.651 321.574,304.287 321.272 C 304.004 321.038,303.571 320.970,303.325 321.123 C 303.078 321.275,301.059 321.388,298.838 321.374 C 295.667 321.353,294.800 321.466,294.800 321.897 C 294.800 322.200,294.617 322.334,294.393 322.196 C 294.170 322.058,294.067 321.815,294.166 321.655 C 294.264 321.496,293.997 321.340,293.572 321.308 C 293.148 321.276,292.800 321.479,292.800 321.758 C 292.800 322.038,292.530 322.267,292.200 322.267 C 291.870 322.267,291.600 322.027,291.600 321.733 C 291.600 320.806,290.801 321.158,290.768 322.100 C 290.751 322.595,290.646 322.774,290.534 322.498 C 290.423 322.221,290.167 322.097,289.966 322.221 C 289.765 322.345,289.600 322.167,289.600 321.824 C 289.600 321.481,289.420 321.200,289.200 321.200 C 288.980 321.200,288.797 321.605,288.794 322.100 C 288.789 322.828,288.714 322.885,288.400 322.400 C 288.187 322.070,288.009 321.957,288.006 322.149 C 288.003 322.341,287.730 322.274,287.400 322.000 C 286.903 321.588,286.799 321.631,286.794 322.251 C 286.790 322.667,286.657 322.822,286.494 322.600 C 286.332 322.380,285.930 322.200,285.600 322.200 C 285.270 322.200,284.868 322.380,284.706 322.600 C 284.513 322.863,284.410 322.859,284.406 322.586 C 284.403 322.358,284.040 322.171,283.600 322.171 C 283.160 322.171,282.797 322.358,282.794 322.586 C 282.791 322.814,282.620 322.734,282.414 322.410 C 282.100 321.913,281.990 321.945,281.721 322.610 C 281.544 323.044,281.162 323.449,280.870 323.510 C 280.579 323.570,280.432 323.472,280.544 323.291 C 280.656 323.110,280.579 322.700,280.374 322.381 C 280.069 321.907,279.957 321.958,279.764 322.659 C 279.532 323.503,278.109 323.725,278.286 322.890 C 278.333 322.668,278.018 322.393,277.586 322.280 C 276.729 322.056,276.562 322.402,277.213 323.053 C 277.498 323.338,277.442 323.467,277.036 323.467 C 276.710 323.467,276.479 323.272,276.522 323.033 C 276.565 322.795,276.285 322.625,275.900 322.656 C 275.515 322.686,275.200 322.521,275.200 322.289 C 275.200 322.057,275.084 321.982,274.943 322.124 C 274.802 322.265,274.902 322.641,275.165 322.958 C 275.850 323.784,274.619 323.565,273.583 322.678 C 272.783 321.993,272.468 322.308,273.210 323.050 C 273.490 323.330,273.205 323.437,272.310 323.386 C 271.590 323.345,270.775 323.489,270.500 323.705 C 270.169 323.965,269.821 323.950,269.470 323.658 C 269.084 323.338,268.814 323.346,268.470 323.690 C 268.115 324.045,267.887 324.047,267.539 323.699 C 267.229 323.389,266.843 323.363,266.363 323.620 C 265.900 323.868,265.561 323.861,265.400 323.600 C 265.233 323.330,264.904 323.330,264.400 323.600 C 263.924 323.855,263.562 323.861,263.411 323.619 C 263.058 323.047,262.089 323.552,262.148 324.277 C 262.177 324.623,261.884 324.956,261.498 325.018 C 261.112 325.079,260.885 324.986,260.994 324.810 C 261.102 324.634,260.939 324.282,260.631 324.026 C 260.040 323.535,259.360 324.087,259.759 324.733 C 259.872 324.917,259.711 325.067,259.400 325.067 C 259.089 325.067,258.915 324.937,259.013 324.779 C 259.111 324.620,258.942 324.284,258.638 324.031 C 258.200 323.668,258.096 323.721,258.142 324.286 C 258.188 324.846,257.953 324.971,257.055 324.865 C 256.192 324.764,255.985 324.863,256.214 325.265 C 256.458 325.696,256.412 325.703,255.979 325.300 C 255.398 324.761,253.935 324.606,254.100 325.100 C 254.155 325.265,254.020 325.400,253.800 325.400 C 253.580 325.400,253.438 325.287,253.484 325.148 C 253.530 325.010,252.900 324.925,252.084 324.960 L 250.600 325.024 250.646 328.063 C 250.692 331.162,251.468 336.278,252.001 337.000 C 252.163 337.220,252.521 338.120,252.797 339.000 C 253.625 341.640,256.733 347.394,258.783 350.081 C 279.946 377.818,322.546 370.921,333.986 337.905 C 335.955 332.222,336.635 317.800,334.933 317.800 C 334.677 317.800,334.332 317.665,334.167 317.500 C 333.707 317.040,333.450 317.128,332.511 318.067 M303.456 319.878 C 303.019 320.314,303.173 320.667,303.800 320.667 C 304.130 320.667,304.400 320.527,304.400 320.357 C 304.400 319.906,303.755 319.579,303.456 319.878 " stroke="none" fill="#267c74" fill-rule="evenodd" data-index="3" style="opacity: 1;"></path><path id="path4" d="M268.727 16.999 C 259.266 18.591,250.232 23.501,243.719 30.591 C 240.997 33.555,236.489 40.223,236.918 40.652 C 237.044 40.777,237.589 40.007,238.130 38.940 C 245.036 25.329,261.616 16.189,278.155 16.877 C 280.600 16.978,282.060 16.934,281.400 16.778 C 279.436 16.314,272.028 16.444,268.727 16.999 M288.600 18.764 C 299.330 22.099,307.589 28.660,313.536 38.575 C 314.451 40.101,315.200 41.173,315.200 40.958 C 315.200 39.025,307.603 29.393,303.548 26.183 C 297.987 21.781,289.070 17.509,285.679 17.623 C 285.306 17.635,286.620 18.149,288.600 18.764 M235.450 43.591 C 234.547 45.847,234.687 46.183,235.637 44.042 C 236.066 43.075,236.345 42.212,236.258 42.125 C 236.171 42.038,235.808 42.698,235.450 43.591 M315.835 43.200 C 315.981 43.750,316.354 44.650,316.664 45.200 L 317.229 46.200 316.965 45.200 C 316.819 44.650,316.446 43.750,316.136 43.200 L 315.571 42.200 315.835 43.200 M317.245 46.600 C 317.239 46.820,317.586 48.350,318.018 50.000 C 318.645 52.401,318.756 52.617,318.574 51.082 C 318.366 49.339,317.272 45.648,317.245 46.600 M233.644 48.660 C 232.314 53.673,231.906 62.356,232.772 67.200 C 233.332 70.329,234.382 74.152,234.617 73.917 C 234.710 73.823,234.608 73.129,234.391 72.374 C 232.564 66.036,232.244 57.837,233.562 51.200 C 234.334 47.319,234.379 45.887,233.644 48.660 M319.000 59.463 C 319.000 65.302,318.416 70.058,317.325 73.098 C 317.186 73.484,317.205 73.681,317.367 73.536 C 318.742 72.303,320.125 59.118,319.326 54.863 C 319.099 53.650,319.000 55.040,319.000 59.463 M316.376 75.500 C 313.415 84.638,304.009 94.818,294.501 99.174 C 293.347 99.703,292.480 100.213,292.575 100.308 C 293.303 101.036,301.843 95.672,305.729 92.045 C 309.931 88.124,316.110 78.802,316.962 75.100 C 317.333 73.490,316.941 73.758,316.376 75.500 M234.998 75.200 C 235.458 76.745,236.339 78.800,236.541 78.800 C 236.752 78.800,235.236 74.700,234.915 74.400 C 234.797 74.290,234.835 74.650,234.998 75.200 M189.000 79.195 C 194.090 79.514,197.959 80.382,202.200 82.156 C 203.552 82.722,203.678 82.729,203.010 82.203 C 200.869 80.516,194.795 79.099,189.200 78.982 L 183.800 78.869 189.000 79.195 M179.100 79.840 C 178.055 80.161,177.200 80.521,177.200 80.639 C 177.200 80.757,177.605 80.721,178.100 80.560 C 178.595 80.398,179.990 80.044,181.200 79.774 C 182.707 79.437,183.022 79.278,182.200 79.269 C 181.540 79.262,180.145 79.519,179.100 79.840 M236.801 79.425 C 236.803 80.010,239.475 84.298,241.376 86.768 C 248.644 96.209,260.754 102.903,271.400 103.364 C 273.160 103.440,273.880 103.429,273.000 103.340 C 257.895 101.804,246.013 94.402,238.465 81.825 C 237.549 80.299,236.800 79.219,236.801 79.425 M173.400 81.957 C 172.080 82.593,170.640 83.417,170.200 83.788 C 169.760 84.159,170.390 83.943,171.600 83.307 C 172.810 82.672,174.430 81.859,175.200 81.501 C 175.970 81.144,176.420 80.840,176.200 80.826 C 175.980 80.812,174.720 81.321,173.400 81.957 M204.000 82.894 C 204.110 83.014,205.460 83.949,207.000 84.971 C 208.602 86.035,209.248 86.344,208.510 85.694 C 207.421 84.735,203.403 82.241,204.000 82.894 M163.793 88.031 C 155.228 94.018,153.914 96.130,155.955 100.624 C 156.645 102.142,167.417 117.481,168.720 118.800 C 169.777 119.870,168.895 118.567,162.515 109.639 C 153.270 96.699,153.295 96.020,163.300 88.925 C 168.445 85.276,169.567 84.400,169.093 84.400 C 169.034 84.400,166.649 86.034,163.793 88.031 M212.453 89.502 C 215.996 93.461,218.033 97.072,222.610 107.508 C 224.759 112.408,226.586 116.347,226.671 116.262 C 226.850 116.083,221.552 103.774,219.155 98.800 C 217.154 94.650,214.759 91.252,211.964 88.600 C 210.000 86.737,210.033 86.798,212.453 89.502 M289.400 101.234 C 288.300 101.659,287.920 101.905,288.556 101.781 C 289.814 101.537,292.450 100.466,291.800 100.464 C 291.580 100.463,290.500 100.809,289.400 101.234 M284.618 102.451 C 283.748 102.655,281.858 102.988,280.418 103.192 L 277.800 103.563 280.856 103.369 C 282.537 103.262,284.697 102.928,285.656 102.627 C 287.639 102.004,286.993 101.895,284.618 102.451 M227.369 118.300 C 227.492 118.685,228.826 121.790,230.332 125.200 L 233.072 131.400 234.836 131.508 C 235.806 131.567,237.680 131.446,239.000 131.237 C 241.084 130.908,240.873 130.886,237.400 131.067 L 233.400 131.275 230.433 124.438 C 227.819 118.412,226.672 116.115,227.369 118.300 M170.517 121.500 C 172.172 123.771,174.079 126.481,175.373 128.400 C 175.892 129.170,182.140 137.942,189.258 147.892 C 196.376 157.843,204.270 168.910,206.800 172.485 C 211.720 179.439,213.636 181.783,214.966 182.478 C 215.424 182.718,215.049 182.214,214.131 181.357 C 213.214 180.501,205.034 169.360,195.953 156.600 C 173.050 124.415,169.587 119.600,169.344 119.600 C 169.227 119.600,169.755 120.455,170.517 121.500 M329.000 122.739 C 327.969 122.920,329.179 123.026,332.400 123.039 C 345.339 123.088,354.580 129.685,358.681 141.800 C 359.395 143.911,359.573 144.206,359.403 143.000 C 357.705 130.967,341.955 120.471,329.000 122.739 M323.305 123.487 C 323.914 123.579,324.814 123.577,325.305 123.482 C 325.797 123.387,325.300 123.311,324.200 123.314 C 323.100 123.317,322.697 123.395,323.305 123.487 M312.600 124.223 L 308.200 124.733 312.400 124.530 C 314.710 124.418,317.680 124.186,319.000 124.015 L 321.400 123.705 319.200 123.709 C 317.990 123.711,315.020 123.942,312.600 124.223 M296.600 125.608 C 292.640 125.996,288.950 126.413,288.400 126.534 C 286.313 126.995,298.215 126.077,305.600 125.207 L 308.200 124.901 306.000 124.902 C 304.790 124.902,300.560 125.219,296.600 125.608 M283.505 127.083 C 284.002 127.179,284.722 127.175,285.105 127.075 C 285.487 126.975,285.080 126.896,284.200 126.901 C 283.320 126.905,283.007 126.987,283.505 127.083 M276.200 127.463 C 275.540 127.542,270.140 128.054,264.200 128.601 C 249.172 129.984,246.384 130.285,248.038 130.346 C 249.489 130.400,279.687 127.726,280.800 127.444 C 281.553 127.254,277.819 127.270,276.200 127.463 M243.705 130.687 C 244.314 130.779,245.214 130.777,245.705 130.682 C 246.197 130.587,245.700 130.511,244.600 130.514 C 243.500 130.517,243.097 130.595,243.705 130.687 M359.693 146.000 C 359.693 146.770,359.775 147.085,359.876 146.700 C 359.976 146.315,359.976 145.685,359.876 145.300 C 359.775 144.915,359.693 145.230,359.693 146.000 M358.290 158.471 C 357.929 159.602,357.784 160.363,357.968 160.164 C 358.404 159.691,359.330 156.796,359.114 156.581 C 359.023 156.489,358.652 157.340,358.290 158.471 M356.252 162.847 C 351.787 170.789,343.774 175.343,332.400 176.403 L 328.600 176.757 333.039 176.591 C 340.911 176.298,347.394 173.552,352.400 168.391 C 354.788 165.930,357.940 161.407,357.544 161.011 C 357.453 160.919,356.871 161.746,356.252 162.847 M324.905 177.087 C 325.514 177.179,326.414 177.177,326.905 177.082 C 327.397 176.987,326.900 176.911,325.800 176.914 C 324.700 176.917,324.297 176.995,324.905 177.087 M316.200 177.446 C 315.540 177.512,310.680 177.865,305.400 178.232 C 296.676 178.838,293.425 179.200,296.713 179.200 C 298.483 179.200,320.476 177.620,321.200 177.441 C 321.899 177.268,317.965 177.272,316.200 177.446 M284.400 179.642 C 281.870 179.822,279.170 180.048,278.400 180.144 C 276.134 180.427,287.500 179.953,291.000 179.618 L 294.200 179.312 291.600 179.313 C 290.170 179.314,286.930 179.462,284.400 179.642 M265.000 180.996 C 261.480 181.268,256.440 181.641,253.800 181.823 C 251.160 182.006,249.421 182.225,249.936 182.310 C 250.887 182.468,275.066 180.878,275.800 180.609 C 276.594 180.319,271.269 180.510,265.000 180.996 M243.907 182.690 C 244.626 182.779,245.706 182.777,246.307 182.686 C 246.908 182.595,246.320 182.522,245.000 182.524 C 243.680 182.526,243.188 182.601,243.907 182.690 M216.000 183.075 C 216.000 184.409,220.671 184.630,231.400 183.803 C 235.580 183.480,239.525 183.213,240.167 183.208 C 240.808 183.204,241.217 183.084,241.075 182.942 C 240.934 182.800,236.067 183.009,230.262 183.407 C 220.719 184.061,219.529 184.071,217.853 183.520 C 216.834 183.184,216.000 182.984,216.000 183.075 M314.600 201.479 C 313.280 201.550,305.810 201.964,298.000 202.400 C 290.190 202.836,280.290 203.377,276.000 203.602 C 271.710 203.827,263.610 204.274,258.000 204.596 C 252.390 204.917,243.840 205.374,239.000 205.609 C 220.242 206.523,219.857 206.692,214.798 216.230 C 213.407 218.854,209.715 225.680,206.593 231.400 C 203.472 237.120,199.339 244.770,197.409 248.400 C 192.432 257.762,190.813 260.774,189.777 262.600 C 186.424 268.512,173.206 293.339,173.340 293.473 C 173.520 293.654,174.333 292.210,180.669 280.451 C 182.996 276.133,185.530 271.430,186.301 270.000 C 188.447 266.018,194.428 255.066,199.189 246.400 C 204.051 237.551,208.126 229.992,208.354 229.400 C 208.623 228.703,215.343 216.609,215.577 216.400 C 215.700 216.290,216.060 215.699,216.376 215.086 C 216.692 214.473,217.158 214.052,217.411 214.149 C 217.665 214.246,218.126 214.146,218.436 213.925 C 218.886 213.606,218.861 213.569,218.313 213.745 C 217.935 213.866,217.539 213.826,217.434 213.655 C 217.329 213.485,217.763 213.345,218.400 213.345 C 219.037 213.345,219.474 213.480,219.372 213.645 C 219.270 213.810,219.374 214.061,219.603 214.202 C 219.832 214.344,219.970 214.223,219.910 213.933 C 219.830 213.548,220.393 213.406,222.000 213.403 C 223.210 213.401,224.413 213.262,224.672 213.093 C 224.932 212.925,225.246 212.952,225.371 213.153 C 225.616 213.549,228.243 213.490,228.654 213.080 C 228.792 212.941,229.231 213.002,229.628 213.215 C 230.103 213.469,230.438 213.462,230.603 213.195 C 230.742 212.970,231.022 212.890,231.226 213.016 C 232.229 213.636,233.203 213.552,232.843 212.877 C 232.509 212.253,233.019 212.200,239.341 212.200 C 244.430 212.200,246.432 212.059,247.100 211.654 C 247.595 211.354,248.000 211.253,248.000 211.430 C 248.000 211.608,248.264 211.404,248.587 210.976 C 249.145 210.239,249.233 210.264,249.350 211.200 C 249.449 211.994,250.200 211.379,250.185 210.515 C 250.172 209.695,250.223 209.677,250.876 210.269 C 251.264 210.620,251.495 211.047,251.389 211.218 C 251.224 211.484,252.185 211.451,252.800 211.170 C 252.910 211.119,253.270 211.056,253.600 211.029 C 253.930 211.002,254.173 210.654,254.139 210.257 C 254.084 209.607,254.171 209.622,254.997 210.397 C 255.927 211.271,256.747 210.920,256.159 209.900 C 256.001 209.625,256.315 209.804,256.858 210.297 C 257.625 210.994,257.952 211.088,258.325 210.715 C 258.912 210.128,260.893 210.051,261.288 210.600 C 261.479 210.865,261.815 210.859,262.288 210.582 C 262.680 210.351,263.755 210.183,264.678 210.208 C 265.601 210.233,266.264 210.103,266.151 209.920 C 266.037 209.737,265.790 209.683,265.600 209.800 C 265.410 209.917,265.162 209.862,265.048 209.678 C 264.934 209.494,265.417 209.377,266.120 209.418 C 266.885 209.463,267.356 209.687,267.290 209.976 C 267.230 210.242,267.368 210.344,267.597 210.202 C 267.826 210.061,267.937 209.822,267.844 209.671 C 267.751 209.520,268.189 209.390,268.817 209.382 C 269.785 209.369,269.886 209.460,269.480 209.977 C 269.091 210.470,269.199 210.459,270.046 209.919 C 270.802 209.437,271.213 209.373,271.529 209.689 C 271.823 209.983,272.136 209.995,272.483 209.727 C 272.767 209.508,274.912 209.346,277.250 209.366 C 280.646 209.396,281.458 209.296,281.294 208.868 C 281.143 208.475,281.012 208.457,280.800 208.800 C 280.588 209.143,280.456 209.123,280.304 208.728 C 280.141 208.301,280.777 208.196,283.349 208.223 C 286.127 208.252,286.592 208.354,286.545 208.924 C 286.515 209.291,286.662 209.485,286.872 209.355 C 287.083 209.225,287.175 208.911,287.077 208.656 C 286.951 208.328,287.849 208.193,290.149 208.196 C 292.805 208.199,293.376 208.092,293.270 207.611 C 293.172 207.163,293.333 207.196,293.945 207.750 C 294.782 208.508,295.825 208.298,295.330 207.472 C 295.174 207.213,295.379 207.270,295.785 207.600 C 296.501 208.182,300.911 208.503,300.568 207.948 C 300.480 207.806,299.770 207.732,298.990 207.784 C 298.211 207.836,297.501 207.763,297.413 207.621 C 297.325 207.479,300.586 207.371,304.661 207.381 C 310.118 207.395,312.177 207.268,312.483 206.900 C 312.770 206.555,312.769 206.400,312.482 206.400 C 312.254 206.400,312.006 206.582,311.932 206.804 C 311.858 207.026,311.544 206.801,311.234 206.304 C 310.737 205.506,310.742 205.458,311.273 205.897 C 311.603 206.170,311.997 206.270,312.147 206.119 C 312.542 205.724,319.168 205.728,318.924 206.123 C 318.811 206.306,318.422 206.342,318.060 206.204 C 317.538 206.005,317.502 206.056,317.891 206.447 C 318.280 206.839,318.528 206.815,319.091 206.330 C 319.619 205.874,320.684 205.730,323.269 205.763 C 326.302 205.802,326.681 205.732,326.281 205.204 C 326.030 204.872,326.281 205.005,326.839 205.501 C 327.791 206.346,327.883 206.775,328.342 212.501 C 328.610 215.855,328.977 220.130,329.157 222.000 L 329.483 225.400 329.518 221.800 C 329.705 202.249,328.592 200.733,314.600 201.479 M313.269 206.928 C 313.636 207.615,313.714 207.621,314.390 207.009 C 314.960 206.493,315.162 206.464,315.327 206.876 C 315.476 207.247,315.546 207.258,315.568 206.913 C 315.586 206.644,315.852 206.522,316.160 206.640 C 316.467 206.758,316.810 206.707,316.921 206.527 C 317.033 206.347,316.167 206.198,314.999 206.195 C 313.056 206.190,312.907 206.253,313.269 206.928 M247.527 210.953 C 247.457 210.993,247.101 211.254,246.736 211.533 C 246.222 211.924,246.004 211.930,245.774 211.558 C 245.585 211.251,245.645 211.181,245.941 211.364 C 246.201 211.524,246.511 211.376,246.645 211.028 C 246.776 210.685,247.057 210.512,247.269 210.642 C 247.480 210.773,247.596 210.913,247.527 210.953 M328.253 228.924 C 324.237 246.976,307.049 258.089,288.200 254.821 C 284.749 254.222,283.315 254.394,286.400 255.037 C 306.424 259.205,325.574 247.296,328.819 228.657 C 329.483 224.847,329.122 225.017,328.253 228.924 M254.930 250.100 C 254.394 250.943,248.770 262.136,248.347 263.200 C 247.415 265.546,248.922 262.960,252.018 256.900 C 254.191 252.647,255.558 250.401,255.970 250.402 C 256.316 250.404,261.820 251.213,268.200 252.202 C 274.580 253.190,280.145 253.999,280.567 253.999 C 282.531 254.001,280.333 253.522,273.177 252.389 C 261.278 250.505,255.501 249.600,255.368 249.600 C 255.302 249.600,255.104 249.825,254.930 250.100 M247.000 265.600 C 246.638 266.301,246.431 266.964,246.541 267.074 C 246.651 267.184,247.038 266.701,247.400 266.000 C 247.762 265.299,247.969 264.636,247.859 264.526 C 247.749 264.416,247.362 264.899,247.000 265.600 M244.415 270.700 C 240.957 277.263,228.724 301.780,229.097 301.400 C 229.603 300.884,243.780 273.277,245.684 269.100 C 246.852 266.536,246.127 267.451,244.415 270.700 M285.611 281.230 C 267.623 284.428,252.839 299.413,250.009 317.314 C 249.561 320.149,249.393 328.726,249.778 329.111 C 249.900 329.233,250.000 327.313,250.000 324.844 C 250.000 312.660,255.400 300.164,263.719 293.097 C 267.866 289.574,270.019 288.298,271.973 288.202 C 274.727 288.069,276.442 287.605,276.174 287.067 C 276.046 286.810,276.194 286.909,276.504 287.286 C 276.939 287.816,277.176 287.864,277.543 287.497 C 277.856 287.184,279.685 287.016,282.909 287.006 C 285.599 286.997,288.067 286.821,288.393 286.614 C 289.087 286.174,290.438 286.015,290.199 286.402 C 290.109 286.547,290.289 286.667,290.600 286.667 C 290.911 286.667,291.094 286.552,291.007 286.412 C 290.920 286.271,293.403 286.159,296.525 286.163 C 301.381 286.169,302.194 286.081,302.156 285.556 C 302.113 284.951,303.311 284.777,303.844 285.311 C 303.988 285.455,304.397 285.431,304.753 285.259 C 306.456 284.436,312.002 285.467,314.000 286.978 C 314.330 287.227,315.230 287.744,316.000 288.125 C 331.306 295.705,340.295 319.330,334.598 337.000 C 334.380 337.676,334.405 337.699,334.764 337.147 C 336.313 334.759,337.268 323.773,336.427 318.019 C 332.935 294.138,309.290 277.020,285.611 281.230 M171.800 296.000 C 171.243 297.100,170.877 298.000,170.987 298.000 C 171.097 298.000,171.643 297.100,172.200 296.000 C 172.757 294.900,173.123 294.000,173.013 294.000 C 172.903 294.000,172.357 294.900,171.800 296.000 M168.883 301.300 C 160.483 316.628,160.199 317.397,160.203 324.800 C 160.204 328.088,160.410 330.881,160.729 331.940 C 161.487 334.461,161.632 333.815,160.985 330.796 C 160.169 326.989,160.256 321.892,161.200 318.201 C 161.949 315.273,163.050 312.962,168.777 302.300 C 169.929 300.155,170.782 298.400,170.672 298.400 C 170.562 298.400,169.757 299.705,168.883 301.300 M225.374 308.057 C 223.683 311.436,220.779 317.142,218.921 320.737 C 217.062 324.333,215.634 327.367,215.747 327.480 C 215.860 327.594,217.694 324.202,219.823 319.943 C 221.952 315.684,224.858 309.981,226.282 307.269 C 227.706 304.557,228.776 302.243,228.660 302.126 C 228.543 302.010,227.065 304.679,225.374 308.057 M213.400 331.600 C 212.406 333.580,211.682 335.200,211.792 335.200 C 211.902 335.200,212.806 333.580,213.800 331.600 C 214.794 329.620,215.518 328.000,215.408 328.000 C 215.298 328.000,214.394 329.620,213.400 331.600 M250.034 330.521 C 249.990 331.447,251.227 336.907,251.433 336.700 C 251.519 336.615,251.247 335.027,250.828 333.172 C 250.410 331.317,250.052 330.124,250.034 330.521 M161.801 334.800 C 162.167 336.018,163.155 338.000,163.396 338.000 C 163.600 338.000,162.059 334.318,161.725 334.008 C 161.602 333.894,161.636 334.250,161.801 334.800 M209.928 338.160 C 203.759 348.600,190.242 354.107,179.400 350.599 C 178.736 350.384,178.709 350.411,179.242 350.757 C 184.266 354.025,197.494 351.261,204.200 345.542 C 207.179 343.001,212.154 336.417,211.549 335.817 C 211.467 335.736,210.738 336.790,209.928 338.160 M334.032 338.354 C 334.014 338.658,333.206 340.584,332.235 342.633 C 326.060 355.669,314.866 364.232,300.390 366.994 L 297.400 367.564 300.000 367.339 C 311.188 366.373,324.679 357.221,330.869 346.400 C 332.471 343.599,334.471 338.803,334.257 338.276 C 334.127 337.956,334.053 337.982,334.032 338.354 M164.283 339.600 C 165.207 341.405,170.584 346.785,172.400 347.723 C 173.989 348.544,173.989 348.544,169.986 345.495 C 168.231 344.158,166.555 342.303,164.283 339.185 C 163.593 338.238,163.593 338.254,164.283 339.600 M252.263 339.400 C 254.518 350.602,271.416 365.272,284.000 366.953 C 285.154 367.107,284.557 366.843,282.333 366.216 C 268.058 362.190,258.793 353.812,252.455 339.200 C 252.039 338.242,252.031 338.250,252.263 339.400 M174.000 348.595 C 174.000 348.805,176.735 350.011,177.149 349.983 C 177.470 349.962,174.701 348.439,174.300 348.417 C 174.135 348.408,174.000 348.488,174.000 348.595 M292.700 367.882 C 293.195 367.978,294.005 367.978,294.500 367.882 C 294.995 367.787,294.590 367.709,293.600 367.709 C 292.610 367.709,292.205 367.787,292.700 367.882 " stroke="none" fill="#95c8cd" fill-rule="evenodd" data-index="4"></path></g></svg>
